<svg width="38" height="42" viewBox="0 0 38 42" fill="none" xmlns="http://www.w3.org/2000/svg">
<path d="M0.37207 0L3.738 37.7874L18.8511 42L34.004 37.7727L37.3721 0H0.37207ZM30.3776 8.6583L29.2556 21.2457L29.2598 21.315L29.2556 21.4704L28.4572 30.2694L28.371 31.0527L18.8721 33.6777L18.8637 33.6861L9.3836 31.0443L8.74067 23.7678H13.3883L13.7181 27.468L18.8721 28.8645L24.0428 27.4491L24.5891 21.4242H13.7812L13.6887 20.4057L13.4765 18.0201L13.3672 16.7391H25.003L25.4274 12.0519H7.69853L7.60608 11.0334L7.39598 8.6457L7.28462 7.3647H30.4889L30.3776 8.6583Z" fill="url(#paint0_linear_7402_62)"/>
<defs>
<linearGradient id="paint0_linear_7402_62" x1="18.8721" y1="0" x2="18.8721" y2="42" gradientUnits="userSpaceOnUse">
<stop stop-color="#FDFDFD"/>
<stop offset="1" stop-color="white" stop-opacity="0.18"/>
</linearGradient>
</defs>
</svg>
