<svg width="24" height="24" viewBox="0 0 24 24" fill="none" xmlns="http://www.w3.org/2000/svg">
<path d="M12.344 2.75146C11.0964 2.75146 9.86109 3.00329 8.7085 3.49256C7.55591 3.98184 6.50864 4.69897 5.62648 5.60303C3.84488 7.42886 2.84399 9.90521 2.84399 12.4873C2.84399 16.7906 5.57049 20.4415 9.34199 21.7364C9.81699 21.8143 9.96899 21.5125 9.96899 21.2496V19.6042C7.33749 20.1884 6.77699 18.2996 6.77699 18.2996C6.33999 17.1703 5.72249 16.8685 5.72249 16.8685C4.85799 16.2648 5.78899 16.2843 5.78899 16.2843C6.73899 16.3525 7.24249 17.2871 7.24249 17.2871C8.06899 18.7669 9.46549 18.3288 10.007 18.0952C10.0925 17.4623 10.3395 17.034 10.6055 16.7906C8.49649 16.5472 6.28299 15.7099 6.28299 12.0005C6.28299 10.9198 6.64399 10.0534 7.26149 9.36211C7.16649 9.11871 6.83399 8.10619 7.35649 6.79185C7.35649 6.79185 8.15449 6.52898 9.96899 7.7849C10.7195 7.57071 11.5365 7.46362 12.344 7.46362C13.1515 7.46362 13.9685 7.57071 14.719 7.7849C16.5335 6.52898 17.3315 6.79185 17.3315 6.79185C17.854 8.10619 17.5215 9.11871 17.4265 9.36211C18.044 10.0534 18.405 10.9198 18.405 12.0005C18.405 15.7196 16.182 16.5374 14.0635 16.7808C14.4055 17.0826 14.719 17.6765 14.719 18.582V21.2496C14.719 21.5125 14.871 21.824 15.3555 21.7364C19.127 20.4318 21.844 16.7906 21.844 12.4873C21.844 11.2088 21.5983 9.94278 21.1208 8.76157C20.6434 7.58036 19.9437 6.50709 19.0615 5.60303C18.1794 4.69897 17.1321 3.98184 15.9795 3.49256C14.8269 3.00329 13.5916 2.75146 12.344 2.75146Z" fill="white"/>
</svg>
