<svg width="48" height="42" viewBox="0 0 48 42" fill="none" xmlns="http://www.w3.org/2000/svg">
<path d="M24.3174 16.8729C26.569 16.8729 28.4053 18.7072 28.4053 21C28.4053 23.1836 26.569 25.0397 24.3174 25.0397C22.0658 25.0397 20.2295 23.1836 20.2295 21C20.2295 18.7072 22.0658 16.8729 24.3174 16.8729ZM14.196 38.469C15.5732 39.2988 18.5899 38.0323 22.0658 34.7568C20.929 33.4685 19.8141 32.071 18.7648 30.608C17.0032 30.4396 15.2519 30.1771 13.5183 29.8218C12.4034 34.4948 12.8188 37.7047 14.196 38.469ZM15.7481 25.935L15.1141 24.8213C14.8737 25.4546 14.6332 26.0878 14.4802 26.6993C15.0704 26.8303 15.7262 26.9395 16.4039 27.0486L15.7481 25.935ZM30.0448 24.2754L31.8155 21L30.0448 17.7246C29.389 16.5672 28.6895 15.5409 28.0555 14.5146C26.8751 14.4491 25.629 14.4491 24.3174 14.4491C23.0058 14.4491 21.7597 14.4491 20.5792 14.5146C19.9453 15.5409 19.2458 16.5672 18.5899 17.7246L16.8192 21L18.5899 24.2754C19.2458 25.4328 19.9453 26.4591 20.5792 27.4854C21.7597 27.5509 23.0058 27.5509 24.3174 27.5509C25.629 27.5509 26.8751 27.5509 28.0555 27.4854C28.6895 26.4591 29.389 25.4328 30.0448 24.2754ZM24.3174 9.60147C23.902 10.0819 23.4648 10.5841 23.0276 11.1737H25.6072C25.1699 10.5841 24.7327 10.0819 24.3174 9.60147ZM24.3174 32.3985C24.7327 31.9181 25.1699 31.4159 25.6072 30.8263H23.0276C23.4648 31.4159 23.902 31.9181 24.3174 32.3985ZM34.4169 3.53099C33.0616 2.70122 30.0448 3.96772 26.569 7.24316C27.7058 8.5315 28.8206 9.92902 29.8699 11.392C31.6625 11.5667 33.4332 11.8288 35.1165 12.1782C36.2313 7.50519 35.816 4.29526 34.4169 3.53099ZM32.8867 16.065L33.5206 17.1787C33.7611 16.5454 34.0016 15.9122 34.1546 15.3007C33.5644 15.1697 32.9085 15.0605 32.2309 14.9514L32.8867 16.065ZM36.0565 0.670445C39.2699 2.50469 39.6197 7.3305 38.2644 12.9643C43.8169 14.602 47.8174 17.3097 47.8174 21C47.8174 24.6903 43.8169 27.398 38.2644 29.0357C39.6197 34.6695 39.2699 39.4953 36.0565 41.3296C32.8648 43.1638 28.5146 41.0675 24.3174 37.0715C20.1202 41.0675 15.7699 43.1638 12.5565 41.3296C9.36482 39.4953 9.01506 34.6695 10.3704 29.0357C4.81785 27.398 0.817383 24.6903 0.817383 21C0.817383 17.3097 4.81785 14.602 10.3704 12.9643C9.01506 7.3305 9.36482 2.50469 12.5565 0.670445C15.7699 -1.1638 20.1202 0.93248 24.3174 4.92851C28.5146 0.93248 32.8648 -1.1638 36.0565 0.670445ZM35.4225 21C36.1658 22.6377 36.8216 24.2754 37.3681 25.935C41.9588 24.5593 44.5383 22.594 44.5383 21C44.5383 19.406 41.9588 17.4407 37.3681 16.065C36.8216 17.7246 36.1658 19.3623 35.4225 21ZM13.2123 21C12.469 19.3623 11.8132 17.7246 11.2667 16.065C6.67599 17.4407 4.09645 19.406 4.09645 21C4.09645 22.594 6.67599 24.5593 11.2667 25.935C11.8132 24.2754 12.469 22.6377 13.2123 21ZM32.8867 25.935L32.2309 27.0486C32.9085 26.9395 33.5644 26.8303 34.1546 26.6993C34.0016 26.0878 33.7611 25.4546 33.5206 24.8213L32.8867 25.935ZM26.569 34.7568C30.0448 38.0323 33.0616 39.2988 34.4169 38.469C35.816 37.7047 36.2313 34.4948 35.1165 29.8218C33.4332 30.1712 31.6625 30.4333 29.8699 30.608C28.8206 32.071 27.7058 33.4685 26.569 34.7568ZM15.7481 16.065L16.4039 14.9514C15.7262 15.0605 15.0704 15.1697 14.4802 15.3007C14.6332 15.9122 14.8737 16.5454 15.1141 17.1787L15.7481 16.065ZM22.0658 7.24316C18.5899 3.96772 15.5732 2.70122 14.196 3.53099C12.8188 4.29526 12.4034 7.50519 13.5183 12.1782C15.2519 11.8229 17.0032 11.5604 18.7648 11.392C19.8141 9.92902 20.929 8.5315 22.0658 7.24316Z" fill="url(#paint0_linear_7402_63)"/>
<defs>
<linearGradient id="paint0_linear_7402_63" x1="24.3174" y1="0" x2="24.3174" y2="42" gradientUnits="userSpaceOnUse">
<stop stop-color="#FDFDFD"/>
<stop offset="1" stop-color="white" stop-opacity="0.18"/>
</linearGradient>
</defs>
</svg>
