<svg width="12" height="12" viewBox="0 0 12 12" fill="none" xmlns="http://www.w3.org/2000/svg">
<path d="M0.770455 1.60785C0.770634 1.33366 0.884597 1.07075 1.08731 0.876871C1.29003 0.682991 1.56492 0.573995 1.85161 0.573824L10.5212 0.573825C10.8079 0.573996 11.0828 0.682992 11.2855 0.876873C11.4883 1.07075 11.6022 1.33366 11.6024 1.60785L11.6024 9.89958C11.5923 10.1675 11.4741 10.4213 11.2725 10.6076C11.0708 10.7939 10.8016 10.8981 10.5212 10.8985C10.2409 10.8981 9.97163 10.7939 9.77002 10.6076C9.5684 10.4213 9.45013 10.1675 9.44009 9.89958L9.44009 4.10512L1.85161 11.3628C1.64873 11.5569 1.37356 11.6659 1.08664 11.6659C0.799724 11.6659 0.524556 11.5569 0.321675 11.3628C0.118792 11.1688 0.00481535 10.9056 0.00481535 10.6312C0.004815 10.3568 0.118792 10.0936 0.321674 9.89958L7.91015 2.64188L1.85161 2.64188C1.56492 2.64171 1.29003 2.53271 1.08731 2.33883C0.884598 2.14495 0.770634 1.88204 0.770455 1.60785Z" fill="white"/>
</svg>
